<svg xmlns="http://www.w3.org/2000/svg" xmlns:xlink="http://www.w3.org/1999/xlink" width="400" height="400" viewBox="0 0 400 400"><rect width="100%" height="100%" fill="#DDDDDD"/><path d="M165.23 147.05L158.17 135.88Q161.86 132.62 166.26 129.69Q170.65 126.76 175.75 124.59Q180.85 122.42 186.82 121.17Q192.78 119.93 199.73 119.93L199.73 119.93Q209.17 119.93 216.93 122.53Q224.68 125.13 230.22 129.96Q235.75 134.79 238.79 141.63Q241.83 148.46 241.83 156.93L241.83 156.93Q241.83 165.17 239.44 171.19Q237.05 177.21 233.47 181.66Q229.89 186.11 225.61 189.37Q221.32 192.62 217.52 195.50Q213.73 198.37 210.96 201.14Q208.19 203.91 207.65 207.38L207.65 207.38L205.15 223.22L186.82 223.22L184.97 205.53Q184.32 200.43 186.44 196.58Q188.55 192.73 192.08 189.53Q195.61 186.33 199.95 183.35Q204.29 180.36 208.08 176.84Q211.88 173.31 214.43 168.91Q216.98 164.52 216.98 158.44L216.98 158.44Q216.98 154.54 215.52 151.45Q214.05 148.35 211.45 146.13Q208.84 143.91 205.21 142.71Q201.57 141.52 197.34 141.52L197.34 141.52Q191.16 141.52 186.87 142.87Q182.59 144.23 179.60 145.91Q176.62 147.59 174.56 148.95Q172.50 150.31 170.87 150.31L170.87 150.31Q166.96 150.31 165.23 147.05L165.23 147.05ZM178.68 263.80L178.68 263.80Q178.68 260.43 179.93 257.40Q181.18 254.36 183.35 252.19Q185.52 250.02 188.55 248.72Q191.59 247.41 195.06 247.41L195.06 247.41Q198.54 247.41 201.52 248.72Q204.50 250.02 206.73 252.19Q208.95 254.36 210.25 257.40Q211.56 260.43 211.56 263.80L211.56 263.80Q211.56 267.27 210.25 270.25Q208.95 273.24 206.73 275.41Q204.50 277.58 201.52 278.83Q198.54 280.07 195.06 280.07L195.06 280.07Q191.59 280.07 188.55 278.83Q185.52 277.58 183.35 275.41Q181.18 273.24 179.93 270.25Q178.68 267.27 178.68 263.80Z" fill="#999999"/></svg>